<?xml version="1.0" standalone="no"?>
<!DOCTYPE svg PUBLIC "-//W3C//DTD SVG 20010904//EN"
 "http://www.w3.org/TR/2001/REC-SVG-20010904/DTD/svg10.dtd">
<svg version="1.0" xmlns="http://www.w3.org/2000/svg"
 width="525.000000pt" height="527.000000pt" viewBox="0 0 525.000000 527.000000"
 preserveAspectRatio="xMidYMid meet">

<g transform="translate(0.000000,527.000000) scale(0.100000,-0.100000)"
fill="#000000" stroke="none">
<path d="M1473 5263 c-7 -2 -13 -11 -13 -18 0 -8 -6 -18 -14 -22 -12 -8 -36
-45 -36 -57 0 -15 41 -4 47 12 3 9 14 26 23 37 35 42 32 64 -7 48z"/>
<path d="M1587 5256 c-6 -15 19 -30 34 -20 5 3 9 12 9 20 0 18 -36 18 -43 0z"/>
<path d="M1844 5255 c-10 -8 -33 -15 -50 -15 -17 0 -37 -7 -44 -14 -7 -9 -29
-15 -53 -15 -23 1 -56 -1 -74 -3 -30 -5 -95 -45 -120 -75 -6 -8 -26 -22 -45
-31 -31 -16 -33 -21 -35 -69 -2 -44 1 -55 18 -63 25 -14 15 -32 -14 -25 -24 5
-42 -15 -84 -92 -33 -63 -29 -136 8 -146 10 -3 19 -12 19 -20 0 -8 7 -27 14
-43 13 -24 13 -29 0 -39 -12 -8 -13 -16 -5 -38 12 -32 14 -32 48 -10 19 13 28
14 31 5 6 -19 26 -14 51 12 16 17 20 30 16 49 -5 20 0 30 29 52 20 15 36 34
36 43 0 8 6 23 14 31 18 21 32 66 17 57 -18 -12 -34 4 -20 20 6 7 15 12 19 9
5 -3 19 5 32 16 13 12 42 31 63 43 21 12 43 31 49 41 6 11 19 31 29 44 9 13
17 31 17 41 0 16 50 80 64 80 4 0 19 9 34 20 16 12 51 23 82 26 63 6 110 22
110 36 0 6 -10 28 -22 49 l-22 39 -96 0 c-69 0 -102 -4 -116 -15z m-284 -200
c-16 -19 -30 -19 -30 -1 0 8 8 16 18 18 24 6 27 1 12 -17z m-61 -36 c-12 -24
-29 -25 -29 -1 0 24 8 32 26 25 10 -4 11 -10 3 -24z m-74 -149 c-10 -11 -20
-18 -23 -15 -7 6 18 35 31 35 5 0 2 -9 -8 -20z m25 -240 c0 -5 -9 -10 -21 -10
-11 0 -17 5 -14 10 3 6 13 10 21 10 8 0 14 -4 14 -10z m66 -37 c-10 -10 -19 5
-10 18 6 11 8 11 12 0 2 -7 1 -15 -2 -18z"/>
<path d="M2131 5231 c26 -47 46 -53 51 -13 3 26 4 26 32 -19 26 -41 35 -47 70
-52 42 -5 102 -52 154 -121 71 -95 217 -245 239 -246 7 0 27 -13 45 -28 45
-38 134 -96 183 -118 22 -10 58 -32 80 -50 22 -17 50 -34 62 -38 11 -4 24 -13
27 -21 3 -8 14 -15 24 -15 10 0 22 -4 27 -9 6 -5 64 -30 130 -56 66 -25 126
-52 135 -59 24 -22 81 -35 141 -33 121 3 155 -45 152 -213 -1 -90 0 -93 13
-62 10 23 20 32 38 32 37 0 70 15 111 52 21 18 45 33 54 33 8 0 18 9 21 20 3
11 13 29 23 40 52 59 79 97 82 117 2 13 13 51 26 84 21 56 22 67 11 110 -20
79 -32 199 -23 230 10 35 4 154 -10 206 -5 20 -9 40 -8 45 1 4 -3 20 -9 34
-12 29 -50 61 -164 137 l-77 52 -493 0 -493 0 43 -25 c24 -13 61 -29 83 -35
26 -7 39 -16 39 -28 0 -13 2 -14 9 -3 7 11 15 11 46 1 31 -10 35 -14 21 -22
-9 -5 -25 -7 -35 -3 -11 3 -22 1 -26 -4 -4 -7 -14 -6 -29 4 -12 8 -45 22 -73
30 -28 8 -56 22 -62 29 -7 8 -27 18 -44 21 -18 4 -39 13 -47 19 -20 17 -138
20 -157 5 -10 -9 -17 -9 -25 -1 -18 18 -38 15 -31 -4 4 -12 16 -15 47 -12 23
3 33 3 24 1 -10 -3 -18 -9 -18 -14 0 -11 -25 -12 -48 0 -52 26 -73 34 -79 28
-3 -4 1 -7 10 -7 10 0 17 -4 17 -9 0 -20 -18 -19 -51 2 -29 18 -52 22 -163 25
l-128 4 23 -41z m1646 -18 c19 -5 39 -30 30 -39 -8 -8 -65 21 -77 39 -11 18
-10 19 7 12 10 -4 28 -10 40 -12z m-1169 -18 c-3 -3 -13 -2 -22 1 -14 5 -15 9
-4 15 13 8 36 -6 26 -16z m492 -45 c0 -5 -7 -10 -15 -10 -8 0 -15 5 -15 10 0
6 7 10 15 10 8 0 15 -4 15 -10z m822 -120 c16 -15 18 -20 7 -20 -16 0 -39 19
-39 32 0 13 9 9 32 -12z"/>
<path d="M2250 4949 c0 -33 153 -313 185 -339 8 -7 15 -18 15 -25 0 -17 69
-93 70 -76 0 7 -15 34 -33 60 -19 25 -60 93 -91 151 -31 58 -63 116 -71 130
-8 14 -21 39 -29 56 -18 37 -46 64 -46 43z"/>
<path d="M4110 4940 c0 -5 7 -7 15 -4 8 4 15 8 15 10 0 2 -7 4 -15 4 -8 0 -15
-4 -15 -10z"/>
<path d="M4180 4665 c0 -12 7 -15 25 -13 14 2 26 8 26 13 0 6 -12 11 -26 13
-18 2 -25 -1 -25 -13z"/>
<path d="M4271 4656 c-14 -26 -8 -46 14 -46 9 0 12 6 9 15 -4 9 0 15 10 15 9
0 16 8 16 20 0 28 -34 26 -49 -4z"/>
<path d="M766 4599 c-9 -13 -16 -38 -16 -55 0 -38 19 -96 30 -89 13 8 39 -94
50 -195 6 -52 15 -122 20 -155 5 -33 17 -150 25 -260 8 -110 19 -240 25 -290
5 -49 8 -117 5 -150 -2 -33 0 -62 6 -65 5 -4 11 -26 14 -51 7 -53 26 -131 34
-141 4 -5 5 35 3 87 l-4 95 31 0 c35 0 80 20 100 44 18 21 -5 22 -28 2 -9 -8
-35 -17 -57 -21 l-42 -6 -6 43 c-3 24 -8 84 -11 133 -3 50 -10 115 -15 145 -6
30 -17 143 -26 250 -8 107 -17 206 -19 220 -2 14 -11 81 -19 150 -29 229 -41
290 -63 312 l-21 20 -16 -23z"/>
<path d="M4314 4594 c3 -9 6 -18 6 -20 0 -2 7 -4 15 -4 18 0 19 12 3 28 -17
17 -31 15 -24 -4z"/>
<path d="M4295 4522 c-39 -5 -54 -19 -29 -27 10 -4 27 -11 36 -16 14 -7 19 -4
24 16 8 31 7 31 -31 27z"/>
<path d="M4530 4487 c-8 -7 -21 -23 -28 -36 -15 -25 -14 -26 31 -52 9 -5 17
-18 17 -28 0 -23 25 -45 40 -36 6 4 8 16 4 28 -6 19 -5 20 10 8 9 -7 16 -10
16 -5 0 18 -16 30 -39 31 -33 3 -37 10 -24 43 14 37 -3 67 -27 47z"/>
<path d="M1136 4481 c-3 -5 5 -11 19 -13 17 -4 25 -1 25 8 0 15 -36 19 -44 5z"/>
<path d="M4334 4466 c-3 -13 0 -35 7 -48 l14 -23 3 25 c5 31 28 58 56 63 11 2
0 5 -26 6 -42 1 -48 -2 -54 -23z"/>
<path d="M1044 4465 c28 -15 46 -13 46 6 0 5 -17 9 -37 9 l-38 0 29 -15z"/>
<path d="M4251 4341 c-8 -5 -20 -7 -26 -4 -7 2 -22 -7 -33 -21 -11 -14 -28
-26 -38 -27 -17 0 -17 -1 1 -8 11 -5 28 -4 39 1 12 7 22 6 29 -1 6 -6 25 -11
42 -11 17 0 36 -5 43 -12 19 -19 27 0 8 21 -9 10 -16 24 -14 31 4 17 -34 41
-51 31z"/>
<path d="M3136 4285 c-11 -8 -35 -15 -55 -15 -19 0 -41 -7 -50 -15 -100 -93
-131 -127 -131 -141 0 -20 41 -12 81 17 15 11 54 24 86 30 67 12 153 48 153
66 0 6 3 19 6 27 4 12 -4 20 -30 31 -42 18 -36 18 -60 0z"/>
<path d="M1350 4271 c0 -12 5 -21 10 -21 6 0 10 6 10 14 0 8 -4 18 -10 21 -5
3 -10 -3 -10 -14z"/>
<path d="M4450 4279 c0 -5 5 -7 10 -4 6 3 10 8 10 11 0 2 -4 4 -10 4 -5 0 -10
-5 -10 -11z"/>
<path d="M4010 4260 c-24 -8 -24 -8 7 -9 17 -1 35 4 38 9 7 11 -9 11 -45 0z"/>
<path d="M567 4233 c-9 -9 -9 -53 1 -53 4 0 8 14 9 30 2 31 1 34 -10 23z"/>
<path d="M3972 4211 c-11 -6 -10 -10 4 -15 20 -8 32 0 18 14 -5 5 -15 5 -22 1z"/>
<path d="M4058 4213 c7 -3 16 -2 19 1 4 3 -2 6 -13 5 -11 0 -14 -3 -6 -6z"/>
<path d="M4185 4210 c3 -5 10 -10 16 -10 5 0 9 5 9 10 0 6 -7 10 -16 10 -8 0
-12 -4 -9 -10z"/>
<path d="M1110 4160 c-19 -11 -46 -19 -60 -20 -20 0 -22 -2 -10 -10 18 -11 59
-3 81 16 8 8 21 14 27 14 6 0 14 5 17 10 10 16 -17 11 -55 -10z"/>
<path d="M4060 4160 c0 -5 5 -10 10 -10 6 0 10 5 10 10 0 6 -4 10 -10 10 -5 0
-10 -4 -10 -10z"/>
<path d="M4130 4160 c0 -5 -9 -10 -20 -10 -11 0 -20 -5 -20 -10 0 -7 -13 -8
-35 -4 -23 4 -35 2 -35 -5 0 -6 5 -11 11 -11 7 0 17 -7 24 -17 11 -15 15 -14
47 11 31 23 37 24 48 11 7 -8 18 -15 26 -15 7 0 17 -8 23 -17 9 -17 10 -17 17
1 5 13 3 21 -5 24 -7 2 -23 15 -34 28 -21 24 -47 32 -47 14z"/>
<path d="M3890 4150 c0 -5 10 -10 23 -10 18 0 19 2 7 10 -19 13 -30 13 -30 0z"/>
<path d="M620 4146 c0 -2 7 -6 15 -10 8 -3 15 -1 15 4 0 6 -7 10 -15 10 -8 0
-15 -2 -15 -4z"/>
<path d="M616 4088 c-4 -9 -5 -22 -2 -27 11 -18 -5 -59 -25 -64 -13 -4 -19
-14 -19 -34 1 -27 1 -27 15 -9 14 19 15 19 15 -7 0 -16 -5 -27 -14 -27 -14 0
-14 -3 4 -159 6 -54 6 -88 0 -96 -5 -6 -8 -48 -5 -94 2 -45 0 -93 -5 -107 -13
-33 7 -79 27 -63 9 9 17 8 28 -1 20 -17 36 -4 26 23 -4 12 -4 36 -1 52 l6 30
16 -35 16 -35 1 65 c1 39 -5 76 -14 94 -8 15 -13 32 -10 36 8 13 -13 60 -27
60 -19 0 -38 48 -38 93 0 34 3 39 19 34 16 -4 21 2 26 25 4 16 14 32 22 35 8
3 13 14 10 24 -3 10 0 20 7 22 8 3 8 10 -1 26 -7 11 -13 27 -13 35 0 8 -6 19
-13 23 -14 9 -34 48 -40 78 -3 18 -5 18 -11 3z"/>
<path d="M4615 4080 c4 -6 11 -8 16 -5 14 9 11 15 -7 15 -8 0 -12 -5 -9 -10z"/>
<path d="M1380 4061 c0 -11 -9 -21 -22 -25 -21 -6 -21 -7 -5 -17 9 -5 17 -18
17 -27 0 -9 7 -26 15 -36 8 -11 16 -29 16 -40 1 -12 5 15 9 59 5 51 4 84 -2
93 -15 18 -28 15 -28 -7z"/>
<path d="M3993 4072 c-13 -2 -23 -8 -23 -13 0 -11 17 -11 44 0 24 9 9 18 -21
13z"/>
<path d="M4134 4054 c3 -9 6 -38 6 -65 0 -46 1 -49 23 -44 30 7 179 13 195 7
6 -2 12 -13 12 -25 0 -35 13 -9 14 28 1 31 -2 35 -25 35 -19 0 -26 5 -25 17 0
12 -7 19 -21 21 -15 2 -23 -2 -23 -11 0 -9 -10 -14 -25 -14 -19 0 -29 8 -41
33 -9 19 -23 34 -33 33 -10 0 -11 -2 -3 -6 6 -2 12 -14 12 -25 0 -28 -34 -19
-38 10 -2 12 -10 22 -19 22 -10 0 -13 -6 -9 -16z"/>
<path d="M4720 4052 c0 -5 11 -12 25 -15 16 -3 24 0 22 7 -4 14 -47 21 -47 8z"/>
<path d="M4085 4031 c-3 -5 -1 -12 4 -15 5 -3 11 1 15 9 6 16 -9 21 -19 6z"/>
<path d="M2045 4006 c-99 -12 -185 -44 -185 -67 0 -21 104 -5 128 19 30 30 46
28 88 -14 32 -32 40 -36 74 -31 26 3 47 14 63 33 26 30 57 28 57 -3 0 -19 56
-48 65 -34 7 12 -76 88 -108 100 -33 13 -51 13 -182 -3z"/>
<path d="M3801 3991 c-51 -51 -54 -63 -46 -192 8 -137 16 -149 67 -100 30 29
35 30 85 25 34 -4 53 -3 53 4 0 14 -26 22 -37 11 -16 -16 -66 8 -59 28 27 69
34 168 16 212 -15 37 -49 42 -79 12z"/>
<path d="M3960 4002 c0 -16 26 -21 57 -12 l28 8 -27 1 c-14 1 -33 4 -42 7 -9
3 -16 2 -16 -4z"/>
<path d="M456 3954 c-9 -24 -7 -76 3 -70 7 5 13 86 6 86 -2 0 -6 -7 -9 -16z"/>
<path d="M4095 3960 c3 -5 8 -10 11 -10 2 0 4 5 4 10 0 6 -5 10 -11 10 -5 0
-7 -4 -4 -10z"/>
<path d="M1350 3932 c0 -18 5 -32 10 -32 6 0 8 11 4 28 -10 39 -14 40 -14 4z"/>
<path d="M4600 3956 c0 -2 16 -13 35 -25 37 -22 47 -15 17 12 -16 15 -52 24
-52 13z"/>
<path d="M3005 3939 c-27 -16 -85 -71 -85 -81 0 -9 41 -11 64 -2 8 3 13 11 10
18 -3 7 3 19 12 27 14 11 18 11 22 1 2 -7 15 -26 29 -42 34 -41 79 -41 121 0
45 42 82 36 74 -12 -3 -15 4 -18 35 -18 21 0 56 -5 78 -10 55 -12 65 2 25 38
-65 60 -129 82 -253 88 -77 3 -118 1 -132 -7z"/>
<path d="M4477 3930 c7 -25 -12 -26 -26 -3 -9 17 -25 12 -27 -8 -1 -5 -2 -13
-3 -17 -2 -17 -70 -7 -84 12 -15 20 -37 14 -37 -9 0 -19 -27 -26 -40 -9 -7 8
-26 14 -42 14 -25 0 -28 -3 -23 -20 5 -14 2 -20 -10 -20 -20 0 -32 30 -16 40
8 4 1 10 -20 14 -36 7 -89 -12 -89 -31 0 -18 19 -16 26 2 9 22 27 18 21 -5 -7
-26 9 -36 73 -47 44 -7 55 -12 55 -27 0 -13 -11 -23 -35 -31 -32 -11 -33 -12
-12 -19 12 -4 31 -4 42 -1 12 4 26 2 33 -4 7 -5 30 -7 52 -5 22 3 69 9 105 13
60 7 68 11 30 15 -24 2 -17 31 8 34 23 4 29 16 12 27 -18 11 0 25 31 25 16 0
29 4 29 9 0 5 3 16 6 25 4 12 0 16 -15 16 -12 0 -21 6 -21 15 0 8 -6 15 -14
15 -9 0 -12 -7 -9 -20z m-152 -39 c3 -5 1 -12 -5 -16 -5 -3 -10 1 -10 9 0 18
6 21 15 7z"/>
<path d="M4030 3930 c0 -5 7 -10 15 -10 8 0 15 5 15 10 0 6 -7 10 -15 10 -8 0
-15 -4 -15 -10z"/>
<path d="M4545 3930 c3 -5 8 -10 11 -10 2 0 4 5 4 10 0 6 -5 10 -11 10 -5 0
-7 -4 -4 -10z"/>
<path d="M736 3907 c-5 -15 -6 -31 -2 -34 11 -11 18 5 14 34 l-4 28 -8 -28z"/>
<path d="M3946 3895 c-4 -14 -11 -25 -16 -25 -6 0 -10 -4 -10 -10 0 -19 49
-10 74 14 31 28 33 40 6 31 -12 -4 -27 -2 -34 4 -11 9 -15 6 -20 -14z"/>
<path d="M4701 3878 c6 -13 19 -31 27 -41 14 -16 14 -19 2 -28 -13 -8 -12 -12
4 -24 26 -20 36 -19 36 3 1 16 1 16 11 0 14 -26 59 -24 59 2 0 11 -5 20 -11
20 -5 0 -7 5 -4 10 10 16 -5 50 -22 50 -13 0 -13 -3 -3 -15 15 -18 7 -19 -22
-4 -21 11 -21 12 8 24 25 12 26 13 7 14 -12 1 -25 -3 -28 -9 -10 -16 -45 -12
-45 5 0 8 -7 15 -15 15 -13 0 -14 -4 -4 -22z"/>
<path d="M4564 3839 c-9 -10 -23 -19 -31 -19 -7 0 -13 -5 -13 -11 0 -6 7 -9
15 -5 8 3 27 -5 41 -18 57 -51 65 -56 96 -56 38 0 30 10 -25 30 -25 9 -43 23
-45 34 -3 12 1 17 9 14 7 -2 21 2 31 11 13 11 15 18 6 28 -9 11 -13 12 -19 1
-7 -10 -12 -10 -28 -1 -16 10 -22 9 -37 -8z"/>
<path d="M4690 3800 c0 -5 5 -10 10 -10 6 0 10 5 10 10 0 6 -4 10 -10 10 -5 0
-10 -4 -10 -10z"/>
<path d="M3960 3790 c0 -5 9 -10 20 -10 11 0 20 5 20 10 0 6 -9 10 -20 10 -11
0 -20 -4 -20 -10z"/>
<path d="M750 3761 c0 -17 5 -33 10 -36 6 -4 10 8 10 29 0 20 -4 36 -10 36 -5
0 -10 -13 -10 -29z"/>
<path d="M4040 3780 c0 -5 -10 -19 -22 -30 l-23 -21 34 3 c29 2 35 7 38 31 3
19 -1 27 -12 27 -8 0 -15 -4 -15 -10z"/>
<path d="M841 3603 c1 -168 10 -250 25 -218 19 42 3 365 -17 365 -5 0 -9 -66
-8 -147z"/>
<path d="M4785 3729 c-20 -4 -23 -7 -9 -8 11 0 24 -5 30 -10 5 -5 19 -12 32
-16 17 -5 22 -2 22 13 0 23 -30 31 -75 21z"/>
<path d="M3681 3684 c0 -11 3 -14 6 -6 3 7 2 16 -1 19 -3 4 -6 -2 -5 -13z"/>
<path d="M4260 3670 c6 -11 15 -18 21 -15 13 9 11 13 -12 25 -19 11 -20 10 -9
-10z"/>
<path d="M4172 3643 c4 -21 45 -30 61 -14 8 8 3 11 -16 11 -15 0 -27 5 -27 10
0 6 -5 10 -11 10 -6 0 -9 -8 -7 -17z"/>
<path d="M4615 3639 c-4 -6 -14 -8 -22 -5 -25 10 -35 -5 -17 -25 22 -24 28
-24 59 5 21 20 23 25 9 30 -21 8 -22 8 -29 -5z"/>
<path d="M4415 3630 c-3 -5 3 -10 14 -10 12 0 21 5 21 10 0 6 -6 10 -14 10 -8
0 -18 -4 -21 -10z"/>
<path d="M385 3620 c-3 -5 -1 -10 4 -10 6 0 11 5 11 10 0 6 -2 10 -4 10 -3 0
-8 -4 -11 -10z"/>
<path d="M4710 3623 c0 -7 -9 -13 -20 -13 -11 0 -20 -4 -20 -8 0 -10 93 -42
121 -42 11 0 19 -4 19 -8 0 -4 9 -8 19 -8 12 0 21 9 24 23 3 18 0 23 -17 23
-11 0 -30 7 -40 15 -12 9 -29 12 -44 8 -15 -3 -27 -1 -33 8 -6 10 -9 11 -9 2z"/>
<path d="M3880 3574 l0 -46 -35 6 c-28 6 -35 4 -35 -9 0 -8 8 -15 19 -15 10 0
24 -7 31 -14 14 -18 9 -62 -8 -58 -19 3 -14 -43 6 -61 20 -18 52 -23 52 -8 0
5 -7 14 -15 21 -18 15 -20 41 -2 36 6 -3 24 -7 39 -10 15 -3 34 -14 43 -23 13
-12 21 -14 33 -7 29 19 24 33 -17 44 -47 12 -52 31 -16 50 18 10 28 10 38 2
21 -17 53 9 42 34 -4 10 -7 23 -6 29 4 17 -32 35 -71 35 -26 0 -44 6 -55 20
-29 33 -43 25 -43 -26z"/>
<path d="M4460 3609 c0 -5 5 -7 10 -4 6 3 10 8 10 11 0 2 -4 4 -10 4 -5 0 -10
-5 -10 -11z"/>
<path d="M4350 3570 c0 -12 7 -20 18 -20 10 0 27 -6 38 -14 21 -15 47 -16 52
-3 5 15 2 28 -6 24 -4 -3 -25 3 -46 14 -50 24 -56 24 -56 -1z"/>
<path d="M4185 3571 c-3 -5 -1 -12 5 -16 5 -3 10 1 10 9 0 18 -6 21 -15 7z"/>
<path d="M4480 3570 c0 -5 5 -10 10 -10 6 0 10 5 10 10 0 6 -4 10 -10 10 -5 0
-10 -4 -10 -10z"/>
<path d="M461 3544 c0 -11 3 -14 6 -6 3 7 2 16 -1 19 -3 4 -6 -2 -5 -13z"/>
<path d="M4660 3549 c0 -5 5 -7 10 -4 6 3 10 8 10 11 0 2 -4 4 -10 4 -5 0 -10
-5 -10 -11z"/>
<path d="M4528 3536 c-16 -5 -28 -13 -28 -18 0 -11 18 -10 25 2 3 6 13 10 22
10 14 0 14 -2 -2 -20 -17 -19 -15 -50 4 -50 6 0 8 7 5 15 -4 10 0 15 15 15 26
0 27 21 4 42 -14 11 -24 12 -45 4z"/>
<path d="M4750 3530 c-8 -4 -32 -7 -52 -6 -30 1 -38 -2 -38 -16 0 -13 8 -18
29 -18 17 0 33 -4 36 -10 10 -17 20 -11 34 21 15 34 13 41 -9 29z"/>
<path d="M4140 3520 c0 -5 7 -13 17 -18 20 -12 10 -44 -11 -36 -8 3 -21 2 -28
-2 -7 -5 -24 -7 -38 -5 l-25 3 24 -23 c14 -13 30 -24 37 -25 68 -10 75 -44 9
-44 -41 0 -45 -2 -45 -25 0 -30 -20 -33 -27 -5 -3 11 -9 20 -14 20 -12 0 -11
-47 1 -55 6 -3 10 -17 10 -29 0 -30 26 -52 55 -48 13 2 26 -2 30 -7 3 -6 16
-11 27 -11 20 0 20 1 4 19 -17 18 -16 20 6 26 13 4 33 17 46 28 l22 20 24 -23
c17 -15 39 -23 70 -24 45 -2 80 -21 70 -38 -3 -5 -11 -5 -19 2 -7 6 -24 8 -37
5 -14 -3 -41 4 -70 19 -35 18 -48 20 -52 11 -6 -18 3 -25 31 -25 32 0 30 -28
-4 -32 -18 -2 -27 -10 -29 -25 -5 -29 16 -41 23 -14 7 26 39 27 52 2 16 -28
80 -25 93 5 13 29 77 39 96 16 6 -9 12 -24 12 -34 0 -13 10 -20 30 -25 17 -3
35 -13 40 -23 11 -20 58 -33 56 -16 -1 13 6 16 35 16 36 0 19 -34 -21 -41
l-35 -6 40 -1 c47 -2 89 23 65 38 -8 5 -11 13 -6 17 5 4 11 2 13 -4 5 -14 63
-18 63 -5 0 19 -39 44 -58 37 -24 -7 -39 12 -23 28 5 5 26 16 45 22 27 9 39 9
57 -1 25 -14 74 -10 97 8 17 15 15 94 -4 123 -18 28 -77 44 -98 26 -7 -6 -27
-8 -45 -5 -18 4 -37 2 -46 -6 -8 -6 -18 -9 -23 -6 -5 3 -17 -3 -26 -13 -11
-12 -26 -16 -46 -13 -31 4 -38 20 -18 40 9 9 9 12 0 12 -7 0 -18 -11 -24 -25
-6 -14 -19 -25 -29 -25 -10 0 -21 -5 -24 -10 -12 -20 -35 11 -35 46 0 30 -5
36 -38 50 -34 15 -37 20 -34 49 3 28 0 35 -27 48 -29 14 -33 14 -66 -9 -44
-30 -50 -30 -69 -2 l-16 22 0 -23 c0 -23 -1 -24 -20 -6 -11 10 -20 23 -20 30
0 6 -11 17 -25 23 -14 7 -25 7 -25 2z m144 -128 c-19 -4 -19 -4 -29 28 l-8 25
26 -25 c21 -20 23 -26 11 -28z m116 -21 c14 -27 13 -31 -9 -31 -10 0 -21 7
-25 15 -3 8 -12 15 -20 15 -8 0 -18 5 -21 10 -4 6 8 10 29 10 25 0 38 -6 46
-19z m175 -91 c7 -12 -12 -50 -25 -50 -11 0 -14 43 -3 53 9 10 21 9 28 -3z
m40 -30 c3 -5 -1 -10 -9 -10 -8 0 -18 5 -21 10 -3 6 1 10 9 10 8 0 18 -4 21
-10z m45 -71 c0 -23 -23 -25 -44 -3 -24 23 -19 31 14 26 21 -3 30 -10 30 -23z"/>
<path d="M4300 3523 c0 -5 5 -15 10 -23 8 -12 10 -11 10 8 0 12 -4 22 -10 22
-5 0 -10 -3 -10 -7z"/>
<path d="M1310 3504 c0 -8 5 -12 10 -9 6 4 8 11 5 16 -9 14 -15 11 -15 -7z"/>
<path d="M1180 3459 c0 -11 5 -17 10 -14 6 3 10 13 10 21 0 8 -4 14 -10 14 -5
0 -10 -9 -10 -21z"/>
<path d="M1230 3473 c0 -5 9 -17 21 -26 20 -18 20 -17 17 5 -3 21 -38 40 -38
21z"/>
<path d="M4783 3453 c9 -9 19 -14 23 -11 10 10 -6 28 -24 28 -15 0 -15 -1 1
-17z"/>
<path d="M4658 3433 c7 -3 16 -2 19 1 4 3 -2 6 -13 5 -11 0 -14 -3 -6 -6z"/>
<path d="M3790 3409 c0 -18 2 -19 15 -9 8 7 15 16 15 21 0 5 -7 9 -15 9 -9 0
-15 -9 -15 -21z"/>
<path d="M4585 3400 c-3 -5 -1 -10 5 -10 6 0 16 -11 22 -25 13 -28 33 -33 42
-10 3 8 12 15 21 15 28 0 15 15 -25 28 -48 15 -57 15 -65 2z"/>
<path d="M690 3386 c0 -8 5 -18 10 -21 6 -3 10 3 10 14 0 12 -4 21 -10 21 -5
0 -10 -6 -10 -14z"/>
<path d="M1285 3385 c21 -17 45 -17 48 0 1 6 -14 11 -33 13 -33 2 -34 2 -15
-13z"/>
<path d="M1363 3374 c-8 -20 17 -36 34 -22 10 8 10 14 2 24 -15 18 -28 18 -36
-2z"/>
<path d="M3824 3365 c-9 -24 20 -45 62 -45 20 0 45 -11 69 -30 21 -16 47 -30
58 -30 19 0 18 1 -4 23 -27 26 -78 52 -124 62 -16 4 -36 14 -42 23 -11 13 -13
13 -19 -3z"/>
<path d="M571 3347 c-9 -12 -7 -20 12 -43 31 -36 56 -28 52 18 -2 27 -7 34
-27 36 -14 2 -30 -4 -37 -11z"/>
<path d="M702 3300 c2 -25 8 -45 13 -45 17 0 17 49 0 70 -14 19 -15 17 -13
-25z"/>
<path d="M1160 3330 c0 -5 5 -10 10 -10 6 0 10 5 10 10 0 6 -4 10 -10 10 -5 0
-10 -4 -10 -10z"/>
<path d="M1070 3323 c0 -5 4 -15 10 -23 11 -18 25 -7 17 15 -6 15 -27 21 -27
8z"/>
<path d="M1206 3302 c-13 -12 -5 -22 19 -22 14 0 25 4 25 9 0 10 -36 21 -44
13z"/>
<path d="M509 3242 c-2 -30 -1 -56 3 -58 12 -8 21 66 11 89 -9 19 -11 14 -14
-31z"/>
<path d="M460 3270 c0 -5 5 -10 10 -10 6 0 10 5 10 10 0 6 -4 10 -10 10 -5 0
-10 -4 -10 -10z"/>
<path d="M3787 3273 c-3 -5 -1 -17 4 -28 7 -17 8 -17 8 8 1 27 -4 34 -12 20z"/>
<path d="M611 3261 c-14 -9 -12 -44 3 -45 5 -1 14 7 20 16 13 21 -3 41 -23 29z"/>
<path d="M3740 3255 c0 -8 -7 -18 -15 -21 -8 -4 -15 -14 -15 -24 0 -11 -5 -22
-10 -25 -6 -4 -7 -11 -4 -17 4 -6 0 -14 -7 -19 -11 -7 -11 -9 2 -9 9 0 19 9
22 20 3 11 20 26 38 34 28 12 30 15 14 23 -11 7 -16 17 -12 26 3 9 2 19 -3 22
-6 4 -10 -1 -10 -10z"/>
<path d="M2366 3231 c-17 -18 -17 -19 1 -25 34 -10 133 -5 133 8 0 39 -102 52
-134 17z"/>
<path d="M2670 3215 c-25 -13 -52 -24 -60 -25 -19 -1 -67 -37 -59 -44 3 -3 44
-11 90 -17 46 -6 93 -15 104 -19 31 -11 104 24 105 52 0 4 -16 23 -37 43 -44
42 -78 45 -143 10z"/>
<path d="M460 3185 c0 -16 16 -20 24 -6 3 5 -1 11 -9 15 -9 3 -15 0 -15 -9z"/>
<path d="M1042 3180 c0 -14 2 -19 5 -12 2 6 2 18 0 25 -3 6 -5 1 -5 -13z"/>
<path d="M4148 3193 c-23 -4 -28 -9 -28 -34 0 -20 -5 -29 -16 -29 -9 0 -18 -9
-21 -20 -6 -23 -20 -25 -42 -6 -9 7 -27 17 -41 21 -22 7 -23 6 -11 -9 7 -9 22
-16 32 -16 12 0 26 -14 37 -37 13 -28 23 -37 37 -35 11 2 45 3 76 3 37 -1 61
4 68 13 7 9 8 17 3 20 -6 3 -12 -1 -16 -9 -7 -20 -33 -19 -46 3 -8 12 -13 13
-16 5 -4 -9 -11 -9 -29 3 -13 9 -29 13 -35 9 -5 -3 -10 -2 -10 3 0 13 42 33
65 31 46 -5 55 0 52 29 -4 32 -17 63 -26 61 -3 -1 -18 -4 -33 -6z"/>
<path d="M720 3148 c0 -16 -3 -19 -9 -10 -16 26 -45 9 -56 -32 -8 -26 -13 -34
-17 -24 -7 18 -66 32 -82 19 -13 -11 -39 5 -49 29 -3 8 -6 0 -6 -19 -1 -31 1
-33 29 -29 32 5 37 -1 19 -19 -9 -9 -3 -14 22 -20 35 -10 50 -36 30 -56 -8 -8
-11 -5 -11 11 0 12 -6 22 -14 22 -9 0 -14 -13 -14 -41 -1 -39 0 -40 17 -25 34
31 72 14 50 -22 -9 -14 -8 -25 5 -50 20 -39 46 -33 46 10 0 23 4 29 18 26 9
-2 18 -14 20 -28 2 -14 8 -29 14 -35 7 -7 9 15 5 70 l-6 80 19 -50 c22 -58 25
-102 8 -107 -14 -5 -2 -28 14 -28 15 0 3 240 -14 299 -15 49 -38 67 -38 29z"/>
<path d="M3800 3160 c0 -5 7 -10 15 -10 8 0 15 5 15 10 0 6 -7 10 -15 10 -8 0
-15 -4 -15 -10z"/>
<path d="M987 3146 c-9 -23 2 -44 26 -51 12 -4 32 -11 45 -17 35 -18 76 1 80
35 4 30 -13 37 -20 9 -7 -26 -65 -17 -99 15 -22 20 -27 22 -32 9z"/>
<path d="M3615 3150 c-3 -5 -1 -10 4 -10 6 0 11 5 11 10 0 6 -2 10 -4 10 -3 0
-8 -4 -11 -10z"/>
<path d="M4050 3150 c0 -5 5 -10 10 -10 6 0 10 5 10 10 0 6 -4 10 -10 10 -5 0
-10 -4 -10 -10z"/>
<path d="M4865 3131 c-43 -25 -43 -45 0 -58 l35 -11 0 44 c0 24 -1 44 -2 43
-2 0 -16 -8 -33 -18z"/>
<path d="M3935 3130 c3 -5 8 -10 11 -10 2 0 4 5 4 10 0 6 -5 10 -11 10 -5 0
-7 -4 -4 -10z"/>
<path d="M1415 3110 c4 -6 11 -8 16 -5 14 9 11 15 -7 15 -8 0 -12 -5 -9 -10z"/>
<path d="M3633 3104 c-15 -16 -16 -24 -4 -24 8 0 24 30 19 35 -2 2 -9 -3 -15
-11z"/>
<path d="M3858 3103 c6 -2 18 -2 25 0 6 3 1 5 -13 5 -14 0 -19 -2 -12 -5z"/>
<path d="M4525 3101 c-7 -12 12 -24 25 -16 11 7 4 25 -10 25 -5 0 -11 -4 -15
-9z"/>
<path d="M1391 3041 c-9 -16 -7 -19 17 -23 35 -5 62 1 62 13 0 5 -11 7 -25 3
-20 -5 -24 -3 -19 10 9 23 -23 21 -35 -3z"/>
<path d="M3765 3050 c-3 -5 1 -10 9 -10 9 0 16 5 16 10 0 6 -4 10 -9 10 -6 0
-13 -4 -16 -10z"/>
<path d="M4575 3050 c4 -6 11 -8 16 -5 14 9 11 15 -7 15 -8 0 -12 -5 -9 -10z"/>
<path d="M961 3034 c0 -11 3 -14 6 -6 3 7 2 16 -1 19 -3 4 -6 -2 -5 -13z"/>
<path d="M1320 3043 c-55 -9 -100 -24 -100 -33 0 -15 101 -8 107 7 3 7 11 13
19 13 8 0 14 5 14 10 0 6 -3 9 -7 9 -5 -1 -19 -4 -33 -6z"/>
<path d="M1497 3044 c-11 -12 3 -24 29 -24 16 0 24 5 22 13 -5 13 -40 22 -51
11z"/>
<path d="M482 3028 c5 -15 37 -18 41 -3 1 6 -9 12 -22 13 -16 3 -22 -1 -19
-10z"/>
<path d="M2049 2985 c-26 -58 -22 -96 11 -111 28 -14 114 -30 205 -40 56 -6
59 -5 40 10 -20 16 -20 16 -1 31 11 8 17 17 14 20 -2 3 -36 7 -75 9 -50 2 -83
10 -112 27 -37 20 -41 27 -41 61 0 51 -17 48 -41 -7z"/>
<path d="M4755 3010 c3 -5 10 -10 16 -10 5 0 9 5 9 10 0 6 -7 10 -16 10 -8 0
-12 -4 -9 -10z"/>
<path d="M3950 3000 c0 -5 11 -10 25 -10 14 0 25 5 25 10 0 6 -11 10 -25 10
-14 0 -25 -4 -25 -10z"/>
<path d="M4368 2983 c7 -3 16 -2 19 1 4 3 -2 6 -13 5 -11 0 -14 -3 -6 -6z"/>
<path d="M4870 2981 c0 -5 5 -13 10 -16 6 -3 10 -2 10 4 0 5 -4 13 -10 16 -5
3 -10 2 -10 -4z"/>
<path d="M1467 2960 c-3 -13 -14 -20 -30 -20 -29 0 -39 -19 -30 -60 3 -18 1
-30 -5 -30 -16 0 -23 -29 -12 -50 6 -11 14 -28 19 -38 5 -10 7 -30 4 -45 -5
-25 -3 -27 30 -27 26 0 39 -6 47 -20 6 -12 23 -25 37 -31 25 -9 25 -10 8 -29
-24 -26 -6 -48 43 -52 30 -2 38 -8 40 -25 2 -13 -1 -23 -7 -23 -6 0 -11 -11
-11 -24 0 -13 -3 -26 -7 -28 -10 -4 -50 -86 -74 -152 -10 -27 -23 -86 -29
-130 -12 -88 -33 -144 -62 -164 -10 -7 -18 -20 -18 -28 0 -12 -7 -14 -29 -9
-21 4 -30 2 -34 -9 -4 -9 -13 -16 -22 -16 -8 0 -15 -7 -15 -15 0 -8 -9 -15
-20 -15 -11 0 -23 -7 -26 -15 -4 -8 -12 -15 -20 -15 -17 0 -18 12 -2 28 9 9 9
15 1 23 -8 8 -27 6 -70 -6 -95 -27 -173 -59 -173 -72 0 -6 -10 -15 -22 -18
-49 -14 -88 -37 -88 -50 0 -8 -7 -15 -15 -15 -27 0 -16 -31 35 -95 51 -64 238
-248 289 -285 l29 -20 26 21 c14 11 32 19 39 16 6 -2 -3 -11 -20 -21 -18 -9
-33 -20 -33 -25 0 -9 160 -123 245 -173 99 -59 244 -129 350 -169 55 -21 101
-36 102 -35 2 2 -2 17 -8 34 -10 29 -8 34 20 57 17 15 28 32 25 40 -4 9 4 19
20 26 36 17 33 31 -6 27 -36 -4 -52 20 -19 29 29 8 23 37 -9 41 -26 4 -80 48
-80 66 0 6 -12 20 -27 32 l-27 21 28 18 c20 14 30 15 39 6 23 -23 57 -13 72
22 12 28 12 32 -2 35 -8 2 -20 -3 -26 -11 -7 -8 -22 -18 -34 -22 -18 -5 -24
-1 -29 20 -5 21 -10 24 -28 18 -11 -4 -34 -7 -51 -8 -26 0 -30 4 -36 37 -3 20
-11 43 -17 50 -6 8 -9 23 -6 35 5 16 0 21 -24 26 -20 4 -33 14 -37 29 -4 13
-13 30 -20 38 -18 21 -63 138 -70 185 -4 22 -16 60 -27 83 -16 33 -22 72 -26
156 -4 106 -3 120 28 222 38 130 63 186 101 235 24 31 29 46 29 93 0 56 -3 64
-69 183 -17 32 -43 58 -58 59 -29 2 -32 5 -27 19 4 8 1 15 -5 15 -6 0 -8 6 -6
13 3 6 -5 17 -17 22 -13 6 -22 16 -20 23 4 21 -15 13 -21 -8z m-17 -56 c0 -8
-4 -12 -10 -9 -5 3 -10 10 -10 16 0 5 5 9 10 9 6 0 10 -7 10 -16z m10 -64 c0
-5 -4 -10 -10 -10 -5 0 -10 5 -10 10 0 6 5 10 10 10 6 0 10 -4 10 -10z m100
-17 c0 -9 7 -25 17 -35 20 -22 18 -24 -29 -32 -38 -7 -55 8 -23 20 19 8 20 24
1 24 -18 0 -29 16 -21 30 11 17 55 12 55 -7z m-60 -62 c0 -15 -29 -33 -41 -25
-9 5 -7 11 6 21 22 15 35 17 35 4z m127 -27 c-9 -9 -28 6 -21 18 4 6 10 6 17
-1 6 -6 8 -13 4 -17z m-77 -34 c0 -5 -10 -10 -22 -10 -19 0 -20 2 -8 10 19 13
30 13 30 0z"/>
<path d="M3709 2968 c-11 -4 -25 -6 -30 -2 -5 3 -14 2 -20 -2 -6 -3 13 -15 43
-25 56 -19 62 -17 73 18 5 20 3 23 -19 21 -14 -1 -35 -6 -47 -10z"/>
<path d="M1542 2959 c2 -6 8 -10 13 -10 5 0 11 4 13 10 2 6 -4 11 -13 11 -9 0
-15 -5 -13 -11z"/>
<path d="M1030 2945 c-20 -24 -5 -28 21 -6 19 16 20 20 8 21 -9 0 -22 -7 -29
-15z"/>
<path d="M3798 2936 c-5 -22 -1 -25 39 -28 48 -4 54 5 21 33 -32 26 -55 24
-60 -5z"/>
<path d="M3921 2943 c-1 -14 -7 -23 -16 -23 -22 0 -18 -21 5 -27 12 -3 20 -14
20 -26 0 -15 3 -18 11 -10 7 7 6 25 -5 59 -8 28 -15 40 -15 27z"/>
<path d="M4060 2930 c0 -5 9 -10 21 -10 11 0 17 5 14 10 -3 6 -13 10 -21 10
-8 0 -14 -4 -14 -10z"/>
<path d="M4180 2930 c0 -5 6 -10 14 -10 8 0 18 5 21 10 3 6 -3 10 -14 10 -12
0 -21 -4 -21 -10z"/>
<path d="M4270 2926 c0 -18 31 -29 55 -20 15 6 15 8 -6 20 -32 17 -49 17 -49
0z"/>
<path d="M4754 2925 c-18 -13 -17 -14 18 -15 41 0 68 8 68 21 0 15 -65 10 -86
-6z"/>
<path d="M4364 2918 c-4 -6 0 -16 9 -23 22 -16 21 -25 -3 -25 -52 0 32 -64
106 -80 51 -12 74 -33 66 -62 -3 -13 1 -18 18 -18 17 0 20 4 15 18 -4 9 -10
29 -12 43 -4 19 -13 28 -31 32 -25 5 -36 20 -56 81 -5 14 -14 17 -42 14 -30
-4 -35 -2 -31 14 6 21 -27 26 -39 6z"/>
<path d="M4530 2920 c-11 -7 -7 -10 18 -10 20 0 31 4 27 10 -8 13 -26 13 -45
0z"/>
<path d="M974 2835 c12 -170 32 -292 27 -160 -6 144 -15 232 -23 240 -7 7 -8
-20 -4 -80z"/>
<path d="M2611 2906 c-8 -9 -32 -19 -53 -23 -52 -8 -34 -18 56 -32 80 -12 96
-22 78 -52 -7 -11 -10 -24 -7 -28 8 -14 373 -5 390 9 21 18 19 62 -5 88 -24
25 -87 30 -120 10 -16 -10 -36 -8 -107 11 -117 31 -215 38 -232 17z m164 -76
c8 -13 -13 -40 -30 -40 -15 0 -28 27 -19 41 7 12 41 11 49 -1z"/>
<path d="M4627 2909 c-9 -5 -21 -8 -26 -5 -4 3 -16 -3 -26 -14 -19 -21 -60
-27 -68 -10 -3 6 -4 5 -3 -2 5 -24 32 -31 66 -17 100 43 125 57 100 58 -14 0
-33 -4 -43 -10z"/>
<path d="M580 2899 c0 -5 5 -7 10 -4 6 3 10 8 10 11 0 2 -4 4 -10 4 -5 0 -10
-5 -10 -11z"/>
<path d="M3870 2880 c0 -6 -12 -8 -27 -4 l-28 5 29 -26 28 -26 20 21 c10 11
16 25 13 30 -8 13 -35 13 -35 0z"/>
<path d="M482 2869 c2 -6 8 -10 13 -10 5 0 11 4 13 10 2 6 -4 11 -13 11 -9 0
-15 -5 -13 -11z"/>
<path d="M570 2865 c0 -8 5 -15 10 -15 6 0 10 7 10 15 0 8 -4 15 -10 15 -5 0
-10 -7 -10 -15z"/>
<path d="M911 2795 c-1 -76 6 -115 20 -115 13 0 10 55 -6 125 l-13 60 -1 -70z"/>
<path d="M710 2836 c0 -8 5 -18 10 -21 6 -3 10 1 10 9 0 8 -4 18 -10 21 -5 3
-10 -1 -10 -9z"/>
<path d="M3668 2828 c17 -8 26 -8 34 0 9 9 4 12 -22 11 -33 0 -34 -1 -12 -11z"/>
<path d="M544 2819 c-9 -16 2 -22 21 -11 15 8 16 10 1 15 -8 3 -18 2 -22 -4z"/>
<path d="M1292 2808 c2 -18 11 -24 36 -26 18 -2 32 1 32 8 0 6 -10 8 -25 4
-21 -5 -25 -3 -25 15 0 12 -5 21 -11 21 -6 0 -9 -10 -7 -22z"/>
<path d="M1212 2790 c0 -14 2 -19 5 -12 2 6 2 18 0 25 -3 6 -5 1 -5 -13z"/>
<path d="M3990 2800 c0 -5 9 -10 21 -10 11 0 17 5 14 10 -3 6 -13 10 -21 10
-8 0 -14 -4 -14 -10z"/>
<path d="M726 2791 c-4 -7 -5 -15 -2 -18 9 -9 19 4 14 18 -4 11 -6 11 -12 0z"/>
<path d="M4098 2788 c5 -5 16 -8 23 -6 8 3 3 7 -10 11 -17 4 -21 3 -13 -5z"/>
<path d="M4610 2790 c-8 -5 -11 -12 -7 -16 4 -4 13 -2 19 4 15 15 7 24 -12 12z"/>
<path d="M2542 2781 c-10 -6 -8 -10 9 -14 28 -7 46 2 28 14 -17 11 -21 11 -37
0z"/>
<path d="M4416 2782 c-12 -20 25 -52 60 -52 19 0 34 5 34 10 0 6 -7 10 -15 10
-8 0 -24 9 -35 20 -21 21 -36 25 -44 12z"/>
<path d="M560 2745 c-7 -9 -10 -18 -6 -22 9 -9 57 18 50 29 -8 13 -30 9 -44
-7z"/>
<path d="M1150 2746 c0 -9 5 -16 10 -16 6 0 10 4 10 9 0 6 -4 13 -10 16 -5 3
-10 -1 -10 -9z"/>
<path d="M3520 2750 c0 -5 5 -10 10 -10 6 0 10 5 10 10 0 6 -4 10 -10 10 -5 0
-10 -4 -10 -10z"/>
<path d="M691 2730 c-21 -18 -21 -20 -4 -20 23 0 53 -61 53 -109 0 -36 27
-101 42 -101 5 0 7 4 3 10 -10 16 -22 140 -13 140 4 0 8 -5 8 -11 0 -5 4 -8 9
-5 16 10 -1 52 -30 71 -16 11 -29 26 -29 33 0 17 -11 15 -39 -8z"/>
<path d="M1245 2740 c3 -5 8 -10 11 -10 2 0 4 5 4 10 0 6 -5 10 -11 10 -5 0
-7 -4 -4 -10z"/>
<path d="M1270 2701 c0 -11 5 -23 11 -27 8 -4 7 -9 -2 -14 -17 -11 -39 -1 -50
24 -8 18 -9 16 -5 -9 3 -17 1 -37 -4 -45 -14 -23 0 -33 20 -15 20 18 40 13 40
-11 0 -9 -11 -14 -36 -14 -19 0 -44 -5 -54 -10 -26 -14 -39 9 -15 27 14 9 16
16 8 24 -8 8 -17 5 -32 -10 l-22 -22 -44 26 -44 26 -7 -35 c-3 -20 -3 -56 0
-81 l7 -45 47 0 c47 0 47 0 72 -51 13 -29 23 -63 22 -76 -1 -14 3 -33 8 -44 6
-10 7 -19 3 -19 -10 0 -43 58 -43 76 0 13 -5 15 -42 18 -7 1 -13 -8 -13 -19 0
-28 -17 -23 -33 9 -13 26 -15 26 -26 9 -15 -23 -13 -186 5 -310 12 -92 13 -93
40 -93 41 0 254 114 321 172 32 27 60 61 63 74 3 13 7 35 10 49 5 22 2 25 -26
25 -44 0 -32 24 16 30 34 4 40 9 47 38 5 17 13 32 18 32 6 0 10 7 10 15 0 8
-7 15 -15 15 -8 0 -15 -9 -15 -20 0 -11 -4 -20 -10 -20 -5 0 -10 17 -10 38 0
37 1 38 30 34 37 -5 40 15 4 28 -19 8 -25 16 -21 30 7 28 -10 35 -19 8 -7 -22
-7 -22 -23 -2 -15 18 -61 22 -61 4 0 -9 30 -24 43 -22 4 1 7 -5 7 -13 0 -11
-5 -12 -24 -5 -13 5 -27 6 -30 3 -3 -3 -13 0 -22 8 -13 11 -18 11 -21 2 -3 -8
-14 -11 -29 -7 -16 4 -29 1 -37 -9 -7 -8 -25 -17 -40 -20 -23 -3 -30 1 -42 23
-12 23 -12 30 0 46 12 17 17 17 47 6 46 -16 50 -15 43 7 -4 14 1 20 22 24 16
4 34 10 41 15 20 13 4 62 -24 74 -13 6 -24 17 -24 24 0 6 -7 15 -16 18 -23 9
-24 8 -24 -13z m-115 -151 c-3 -5 -15 -10 -26 -10 -10 0 -19 5 -19 10 0 6 12
10 26 10 14 0 23 -4 19 -10z m25 -34 c0 -21 -20 -30 -33 -17 -9 9 -8 14 3 21
21 14 30 12 30 -4z m240 -52 c0 -8 -4 -13 -9 -10 -5 3 -11 -4 -14 -15 -3 -13
-10 -18 -17 -14 -8 5 -4 15 11 31 26 28 29 29 29 8z m-160 -29 c5 3 10 1 10
-4 0 -6 -4 -11 -8 -11 -5 0 -15 -18 -22 -41 -17 -50 -31 -32 -23 29 5 34 8 40
19 31 7 -6 18 -8 24 -4z m57 -52 c3 -8 -6 -12 -26 -10 -32 2 -40 11 -18 20 19
8 40 3 44 -10z m53 -33 c0 -5 -2 -10 -4 -10 -3 0 -8 5 -11 10 -3 6 -1 10 4 10
6 0 11 -4 11 -10z m-70 -20 c0 -5 -4 -10 -10 -10 -5 0 -10 5 -10 10 0 6 5 10
10 10 6 0 10 -4 10 -10z m-58 -75 c-2 -17 3 -32 15 -40 15 -11 10 -12 -31 -3
-39 8 -50 7 -57 -3 -9 -15 -13 -6 -9 24 1 10 -4 25 -11 33 -10 13 -7 14 24 12
20 -1 40 1 44 5 14 15 28 -1 25 -28z"/>
<path d="M4278 2699 c-3 -9 -22 -16 -52 -18 -4 -1 -6 -7 -3 -14 3 -7 -1 -21
-9 -32 -18 -24 -18 -35 1 -35 8 0 15 6 15 13 0 8 18 20 41 27 50 17 55 24 30
49 -11 11 -21 15 -23 10z"/>
<path d="M1107 2694 c-8 -8 1 -24 13 -24 4 0 10 7 14 15 5 15 -14 21 -27 9z"/>
<path d="M4745 2671 c-7 -12 12 -24 25 -16 11 7 4 25 -10 25 -5 0 -11 -4 -15
-9z"/>
<path d="M4125 2633 c8 -35 13 -39 26 -26 8 8 8 17 0 32 -17 31 -35 27 -26 -6z"/>
<path d="M4660 2650 c0 -5 5 -10 10 -10 6 0 10 5 10 10 0 6 -4 10 -10 10 -5 0
-10 -4 -10 -10z"/>
<path d="M3480 2639 c0 -5 5 -7 10 -4 6 3 10 8 10 11 0 2 -4 4 -10 4 -5 0 -10
-5 -10 -11z"/>
<path d="M4560 2630 c0 -5 5 -10 10 -10 6 0 10 5 10 10 0 6 -4 10 -10 10 -5 0
-10 -4 -10 -10z"/>
<path d="M4767 2624 c6 -15 23 -19 23 -5 0 5 -7 11 -14 14 -10 4 -13 1 -9 -9z"/>
<path d="M570 2611 c-14 -28 -13 -31 15 -31 14 0 25 4 25 9 0 5 3 16 6 25 9
24 -33 21 -46 -3z"/>
<path d="M815 2613 c4 -10 10 -30 12 -44 7 -39 73 -67 73 -31 -1 21 -20 46
-42 55 -10 3 -18 11 -18 16 0 5 -7 12 -16 15 -13 5 -15 2 -9 -11z"/>
<path d="M1413 2623 c-25 -10 -12 -24 19 -21 37 4 52 28 16 27 -12 0 -29 -3
-35 -6z"/>
<path d="M3880 2615 c-8 -9 -8 -15 -2 -15 12 0 26 19 19 26 -2 2 -10 -2 -17
-11z"/>
<path d="M3420 2588 c0 -20 -5 -39 -10 -41 -6 -3 -5 -4 2 -3 16 3 30 58 18 70
-7 7 -10 -3 -10 -26z"/>
<path d="M3636 2583 c6 -33 5 -36 -13 -31 -16 4 -19 1 -15 -18 2 -14 0 -24 -7
-24 -13 0 -34 48 -26 60 12 19 -13 18 -30 0 -17 -19 -17 -21 0 -40 18 -20 17
-20 -56 -20 -44 0 -80 5 -87 12 -9 9 -17 8 -37 -2 -27 -14 -35 -33 -10 -24 23
9 85 -5 91 -21 7 -18 -34 -58 -52 -51 -8 3 -14 -1 -14 -8 0 -15 45 -30 60 -21
6 4 10 12 10 19 0 8 15 21 33 29 27 14 34 14 46 3 16 -17 7 -36 -18 -36 -20 0
-36 -46 -20 -56 5 -3 34 6 65 20 69 32 77 32 69 4 -6 -18 -4 -20 11 -13 11 4
26 7 34 6 44 -5 65 -1 76 13 6 9 14 16 18 16 13 0 44 -35 50 -57 10 -30 24
-29 32 2 8 31 26 28 34 -6 l6 -24 7 25 c4 14 7 35 7 48 0 17 6 22 26 22 22 0
25 2 14 15 -7 8 -16 12 -21 9 -5 -3 -9 4 -9 15 0 22 16 29 22 9 7 -21 28 3 28
33 0 17 6 32 15 35 22 9 18 22 -7 26 -18 2 -23 9 -21 31 1 21 -3 27 -18 27
-14 0 -19 -7 -19 -25 0 -23 -3 -25 -34 -22 -30 4 -33 1 -33 -21 0 -13 -6 -28
-13 -32 -8 -5 -5 -9 10 -13 12 -3 19 -10 16 -16 -4 -6 -13 -8 -21 -4 -12 4
-15 -3 -15 -31 0 -25 -4 -36 -15 -36 -8 0 -15 5 -15 10 0 6 -12 10 -26 10 -42
0 -84 67 -54 85 6 3 10 1 10 -4 0 -6 11 -11 24 -11 14 0 32 -7 40 -16 15 -14
16 -14 16 4 0 11 6 25 14 32 17 13 10 40 -10 40 -8 0 -14 -10 -14 -22 0 -21 0
-21 -14 -2 -14 18 -15 18 -21 2 -9 -22 -25 -24 -25 -3 0 17 -16 20 -25 5 -13
-21 -23 2 -18 43 4 39 3 41 -11 23 -14 -17 -16 -17 -22 -3 -12 32 -25 17 -18
-20z m289 -33 c3 -6 -4 -10 -17 -10 -18 0 -20 2 -8 10 19 12 18 12 25 0z
m-301 -56 c31 -12 16 -32 -26 -36 -50 -6 -67 4 -48 27 13 15 46 20 74 9z m246
-78 c0 -29 -10 -38 -29 -27 -17 11 -5 51 15 51 8 0 14 -10 14 -24z"/>
<path d="M3972 2604 c4 -21 22 -23 26 -1 2 10 -3 17 -13 17 -10 0 -15 -6 -13
-16z"/>
<path d="M4402 2613 c-10 -4 -10 -8 -1 -19 6 -8 9 -22 6 -33 -3 -15 2 -20 22
-24 41 -8 51 11 18 35 -22 16 -25 23 -16 34 12 15 -2 18 -29 7z"/>
<path d="M4695 2610 c-3 -5 -1 -10 4 -10 6 0 11 5 11 10 0 6 -2 10 -4 10 -3 0
-8 -4 -11 -10z"/>
<path d="M4720 2605 c0 -8 5 -15 10 -15 6 0 10 7 10 15 0 8 -4 15 -10 15 -5 0
-10 -7 -10 -15z"/>
<path d="M2573 2603 c-101 -3 -114 -6 -124 -24 -8 -16 -7 -26 5 -44 22 -34 73
-47 163 -41 90 5 145 20 164 42 11 14 9 20 -19 45 -19 17 -42 28 -55 27 -12
-1 -73 -4 -134 -5z"/>
<path d="M3488 2598 c-27 -9 -41 -48 -18 -48 6 0 10 7 10 15 0 8 6 15 14 15
14 0 32 18 25 24 -2 2 -16 -1 -31 -6z"/>
<path d="M4006 2588 c-3 -13 -1 -27 4 -32 7 -7 10 1 10 22 0 37 -5 41 -14 10z"/>
<path d="M4365 2600 c-3 -5 -1 -10 4 -10 6 0 11 5 11 10 0 6 -2 10 -4 10 -3 0
-8 -4 -11 -10z"/>
<path d="M3710 2591 c0 -5 7 -14 15 -21 13 -10 15 -9 15 9 0 12 -6 21 -15 21
-8 0 -15 -4 -15 -9z"/>
<path d="M4050 2585 c0 -8 9 -15 19 -15 10 0 22 -7 25 -16 3 -8 11 -12 18 -8
7 5 2 15 -18 31 -34 27 -44 29 -44 8z"/>
<path d="M4625 2591 c-11 -5 -35 -6 -54 -3 -22 3 -32 2 -28 -5 10 -16 -23 -25
-40 -12 -7 7 -16 9 -19 6 -11 -10 52 -36 66 -27 7 4 24 4 37 -1 34 -13 53 -11
53 5 0 8 7 17 16 20 8 3 12 10 9 16 -7 12 -12 12 -40 1z"/>
<path d="M3310 2581 c-8 -6 -18 -7 -22 -5 -4 3 -5 -2 -2 -10 3 -9 2 -16 -4
-16 -6 0 -12 6 -15 13 -4 10 -7 10 -18 0 -18 -18 -46 -16 -53 2 -3 8 -9 15
-13 15 -9 -1 -43 -70 -43 -89 0 -7 -16 -18 -34 -26 -19 -8 -39 -22 -44 -31 -5
-9 -42 -50 -82 -90 -68 -70 -78 -76 -156 -100 -95 -28 -179 -44 -243 -44 -36
0 -149 -24 -220 -46 -10 -3 2 -17 35 -40 53 -38 52 -36 40 -108 -6 -32 -4 -84
4 -148 15 -108 9 -135 -32 -162 -25 -16 -158 -47 -170 -39 -4 2 -5 -2 -2 -10
3 -8 -2 -19 -10 -26 -13 -11 -17 -9 -28 14 -7 16 -22 28 -39 32 -27 5 -42 17
-152 119 -53 50 -77 65 -77 47 0 -18 319 -314 394 -368 16 -11 49 -35 74 -53
l45 -34 81 16 c44 9 110 30 145 46 35 17 67 30 72 30 12 0 199 118 246 156
122 99 240 244 296 364 48 103 70 201 48 214 -5 3 -14 -24 -21 -61 -19 -110
-165 -333 -191 -292 -6 11 -17 9 -50 -8 -29 -15 -49 -19 -63 -13 -24 9 -30 10
-51 10 -8 0 -15 9 -15 20 0 11 4 20 9 20 6 0 13 20 17 45 3 25 10 48 15 51 5
3 9 16 9 29 0 12 7 25 15 29 8 3 15 17 15 31 0 34 17 65 36 65 8 0 22 17 30
38 18 44 48 111 77 172 20 40 63 98 92 121 73 60 92 82 87 105 -5 26 -10 28
-32 15z"/>
<path d="M3361 2574 c0 -11 3 -14 6 -6 3 7 2 16 -1 19 -3 4 -6 -2 -5 -13z"/>
<path d="M495 2560 c18 -20 45 -27 45 -12 0 15 -24 32 -44 32 -18 0 -19 -1 -1
-20z"/>
<path d="M3750 2570 c0 -5 7 -10 15 -10 8 0 15 5 15 10 0 6 -7 10 -15 10 -8 0
-15 -4 -15 -10z"/>
<path d="M4317 2573 c-12 -11 -8 -23 8 -23 8 0 15 7 15 15 0 16 -12 20 -23 8z"/>
<path d="M4680 2541 c0 -10 -8 -22 -17 -26 -17 -6 -17 -7 0 -16 14 -8 22 -5
37 13 25 30 25 48 0 48 -13 0 -20 -7 -20 -19z"/>
<path d="M1310 2539 c0 -5 5 -7 10 -4 6 3 10 8 10 11 0 2 -4 4 -10 4 -5 0 -10
-5 -10 -11z"/>
<path d="M650 2517 c0 -17 41 -30 65 -21 27 11 11 29 -28 32 -27 2 -37 -1 -37
-11z"/>
<path d="M1216 2522 c-3 -6 -1 -14 5 -17 15 -10 25 3 12 16 -7 7 -13 7 -17 1z"/>
<path d="M515 2510 c-18 -8 -17 -9 7 -9 17 -1 32 -9 38 -21 6 -12 21 -25 33
-30 35 -16 60 -33 80 -57 10 -13 25 -23 32 -23 21 0 -24 65 -54 79 -16 8 -22
17 -18 31 6 22 0 25 -23 10 -10 -6 -20 -3 -33 11 -19 21 -31 22 -62 9z"/>
<path d="M4128 2503 c12 -2 30 -2 40 0 9 3 -1 5 -23 4 -22 0 -30 -2 -17 -4z"/>
<path d="M1000 2481 c0 -12 5 -21 10 -21 6 0 10 6 10 14 0 8 -4 18 -10 21 -5
3 -10 -3 -10 -14z"/>
<path d="M862 2478 c3 -7 13 -15 24 -17 16 -3 17 -1 5 13 -16 19 -34 21 -29 4z"/>
<path d="M3998 2483 c7 -3 16 -2 19 1 4 3 -2 6 -13 5 -11 0 -14 -3 -6 -6z"/>
<path d="M4717 2470 c-9 -11 -15 -20 -12 -20 12 0 55 24 55 32 0 15 -25 8 -43
-12z"/>
<path d="M3334 2446 c-3 -13 -1 -34 6 -45 11 -22 30 -29 30 -11 0 6 -4 10 -10
10 -5 0 -10 9 -10 20 0 11 5 20 10 20 6 0 10 7 10 15 0 24 -29 17 -36 -9z"/>
<path d="M4046 2444 c-9 -22 -8 -24 9 -24 8 0 15 6 15 14 0 22 -17 28 -24 10z"/>
<path d="M4276 2435 c4 -8 8 -15 10 -15 2 0 4 7 4 15 0 8 -4 15 -10 15 -5 0
-7 -7 -4 -15z"/>
<path d="M961 2415 c0 -75 35 -311 51 -335 6 -11 8 -6 4 15 -3 17 -11 80 -17
140 -12 115 -38 238 -38 180z"/>
<path d="M3980 2415 c-6 -15 -17 -25 -30 -25 -15 0 -20 -7 -20 -25 0 -29 14
-31 59 -9 26 13 32 21 27 38 -3 11 -6 27 -6 34 0 21 -20 13 -30 -13z"/>
<path d="M4195 2430 c3 -5 13 -10 21 -10 8 0 14 5 14 10 0 6 -9 10 -21 10 -11
0 -17 -4 -14 -10z"/>
<path d="M4380 2430 c0 -5 5 -10 10 -10 6 0 10 5 10 10 0 6 -4 10 -10 10 -5 0
-10 -4 -10 -10z"/>
<path d="M534 2405 c5 -19 2 -33 -10 -46 -17 -19 -10 -25 13 -11 18 11 21 74
4 80 -11 3 -12 -2 -7 -23z"/>
<path d="M844 2383 c8 -56 9 -73 4 -92 -5 -22 19 -24 25 -1 7 26 -15 140 -27
140 -5 0 -6 -21 -2 -47z"/>
<path d="M4602 2418 c6 -18 28 -21 28 -4 0 9 -7 16 -16 16 -9 0 -14 -5 -12
-12z"/>
<path d="M4714 2385 c-7 -28 -14 -31 -33 -12 -10 10 -11 9 -6 -5 14 -36 62
-21 78 25 5 12 1 17 -13 17 -13 0 -22 -9 -26 -25z"/>
<path d="M4487 2385 c-5 -10 0 -15 14 -15 12 0 19 5 17 12 -6 18 -25 20 -31 3z"/>
<path d="M4640 2386 c0 -9 5 -16 10 -16 6 0 10 4 10 9 0 6 -4 13 -10 16 -5 3
-10 -1 -10 -9z"/>
<path d="M3386 2381 c-4 -7 -5 -15 -2 -18 9 -9 19 4 14 18 -4 11 -6 11 -12 0z"/>
<path d="M4120 2377 c-16 -8 -24 -18 -22 -29 2 -10 -2 -18 -8 -18 -10 0 -9 -4
0 -15 7 -8 23 -15 36 -15 12 0 26 -4 29 -10 10 -16 55 -11 62 6 3 10 1 30 -4
45 -10 27 -9 29 12 29 13 0 27 5 30 10 4 6 -6 10 -23 10 -20 0 -35 -8 -45 -22
-8 -13 -29 -28 -46 -35 -29 -10 -32 -10 -29 5 2 10 15 18 31 20 15 2 27 9 27
18 0 17 -15 17 -50 1z"/>
<path d="M4280 2380 c-12 -8 -11 -10 7 -10 12 0 24 -6 26 -12 4 -8 6 -9 6 -2
2 19 -23 34 -39 24z"/>
<path d="M1662 2360 c0 -14 2 -19 5 -12 2 6 2 18 0 25 -3 6 -5 1 -5 -13z"/>
<path d="M611 2351 c-21 -13 -6 -41 18 -34 25 6 26 1 4 -55 -16 -44 -16 -44 7
-62 15 -11 21 -23 17 -34 -10 -25 3 -46 29 -46 33 0 30 -16 -6 -35 -51 -26
-34 -52 24 -37 22 7 38 6 44 0 19 -19 32 3 32 56 0 28 5 57 12 64 17 17 55 15
62 -3 3 -8 11 -15 17 -15 12 0 4 62 -11 90 -7 11 -10 8 -15 -13 -6 -24 -12
-28 -39 -25 -45 4 -49 41 -7 56 17 6 31 16 31 22 0 10 -85 7 -147 -6 -23 -4
-32 10 -13 21 6 4 1 18 -12 36 -24 32 -26 33 -47 20z m129 -127 c0 -24 -20
-25 -29 -2 -12 34 -2 56 16 32 7 -10 13 -23 13 -30z"/>
<path d="M3437 2354 c-11 -11 3 -24 25 -24 17 0 18 2 8 15 -13 16 -23 19 -33
9z"/>
<path d="M3738 2348 c-7 -16 7 -46 17 -37 3 4 2 16 -3 29 -7 18 -10 20 -14 8z"/>
<path d="M4237 2325 c-4 -9 -1 -18 9 -22 22 -8 30 5 12 23 -14 14 -16 14 -21
-1z"/>
<path d="M3510 2320 c-34 -7 -34 -7 13 -9 30 0 46 3 42 9 -3 6 -9 9 -13 9 -4
-1 -23 -5 -42 -9z"/>
<path d="M3677 2317 c-3 -9 -2 -19 4 -23 15 -9 18 -2 9 20 -6 17 -7 18 -13 3z"/>
<path d="M4426 2315 c-15 -11 -16 -18 -8 -28 16 -19 -7 -67 -31 -67 -16 0 -17
6 -12 43 6 42 6 42 -24 42 -17 0 -31 -3 -31 -7 0 -5 -8 -8 -17 -8 -15 0 -14
-4 6 -19 25 -19 22 -44 -4 -34 -10 3 -15 -1 -15 -12 0 -22 -23 -14 -35 13 -9
21 -35 31 -35 13 0 -5 -10 -11 -22 -14 -16 -5 -30 2 -48 20 -15 15 -35 28 -46
29 -10 2 -34 6 -53 10 -28 6 -33 4 -28 -9 3 -9 -10 -32 -37 -62 -48 -52 -51
-85 -10 -104 13 -6 24 -19 24 -30 0 -11 3 -26 6 -35 4 -11 -3 -15 -30 -18 -42
-4 -53 -21 -16 -26 14 -2 31 -9 38 -14 8 -7 17 -7 27 2 13 11 18 10 28 -3 8
-11 20 -15 35 -11 27 8 29 20 3 27 -16 4 -18 13 -17 63 2 67 9 84 36 84 14 0
18 7 17 26 -3 38 19 40 32 3 12 -34 6 -53 -14 -45 -7 2 -15 -4 -18 -15 -7 -25
7 -33 23 -14 17 21 42 19 39 -2 -3 -31 1 -36 16 -23 19 15 45 -3 45 -31 0 -10
9 -20 19 -24 10 -3 22 -17 25 -30 4 -14 11 -25 16 -25 6 0 10 -5 10 -11 0 -6
10 -20 23 -30 l22 -20 -22 6 c-13 4 -23 2 -23 -2 0 -15 23 -33 42 -33 18 0 55
-46 45 -57 -10 -9 -37 17 -37 35 0 15 -2 15 -17 0 -13 -14 -14 -20 -4 -32 7
-8 10 -19 7 -24 -3 -6 0 -15 8 -21 18 -15 69 -3 62 14 -2 7 4 15 16 18 26 7
20 39 -10 52 -12 5 -22 16 -22 24 0 12 3 12 12 3 16 -16 48 -15 48 2 0 8 -7
16 -15 20 -22 8 -18 28 4 21 24 -7 37 11 21 30 -13 16 -5 37 13 34 38 -6 66
44 32 57 -19 8 -20 24 -1 24 8 0 23 -11 34 -25 11 -14 22 -25 26 -25 3 0 17
20 32 45 27 46 26 82 -1 71 -9 -3 -18 1 -21 8 -4 10 -16 13 -40 9 -27 -4 -34
-2 -34 10 0 9 -5 19 -12 23 -8 5 -9 -3 -5 -27 3 -19 3 -28 0 -21 -7 17 -23 15
-23 -4 0 -10 -4 -12 -12 -7 -7 4 -17 8 -23 8 -5 0 -11 9 -13 20 -2 11 -8 24
-12 29 -5 5 0 20 10 35 20 29 36 91 23 91 -4 0 -17 -7 -27 -15z m-371 -95 c3
-5 1 -10 -4 -10 -6 0 -11 5 -11 10 0 6 2 10 4 10 3 0 8 -4 11 -10z m191 -1 c8
-14 -5 -26 -38 -34 -23 -6 -28 -4 -28 11 0 15 2 16 9 5 7 -11 11 -9 20 8 13
23 26 27 37 10z m168 -134 c3 -8 14 -15 25 -15 14 0 19 -5 15 -15 -4 -8 -12
-15 -19 -15 -7 0 -16 -6 -19 -12 -3 -7 -4 -4 -1 8 3 12 -1 27 -10 34 -8 7 -15
16 -15 21 0 15 17 10 24 -6z"/>
<path d="M3620 2310 c0 -5 7 -10 15 -10 8 0 15 5 15 10 0 6 -7 10 -15 10 -8 0
-15 -4 -15 -10z"/>
<path d="M4707 2303 c-4 -3 -7 -11 -7 -17 0 -6 5 -5 12 2 6 6 9 14 7 17 -3 3
-9 2 -12 -2z"/>
<path d="M3583 2285 c-7 -8 -13 -23 -13 -35 0 -26 -30 -27 -37 0 -9 35 -26 22
-20 -16 6 -34 5 -35 -21 -32 -39 4 -43 -29 -5 -38 15 -4 41 -16 56 -26 15 -11
37 -18 47 -15 13 3 21 -1 25 -12 7 -22 64 -40 93 -30 11 4 30 16 41 26 41 37
51 43 76 43 14 0 25 2 25 4 0 2 -13 18 -29 35 -17 18 -31 45 -33 64 -2 24 -8
33 -25 35 -13 2 -23 -2 -23 -8 0 -7 -8 -10 -20 -7 -18 5 -18 4 -2 -22 9 -14
20 -29 25 -32 5 -3 2 -9 -7 -12 -8 -3 -17 -1 -19 6 -3 9 -9 9 -25 0 -16 -10
-23 -9 -36 6 -9 10 -16 23 -16 29 0 7 -4 12 -10 12 -5 0 -10 -14 -10 -31 0
-19 -4 -29 -12 -27 -7 3 -12 23 -11 51 1 26 1 47 0 47 -1 -1 -8 -7 -14 -15z
m-23 -85 c0 -5 -7 -10 -15 -10 -8 0 -15 5 -15 10 0 6 7 10 15 10 8 0 15 -4 15
-10z m106 -15 c4 -8 12 -15 19 -15 19 0 29 -20 17 -32 -8 -8 -15 -8 -26 1 -11
9 -15 9 -19 -1 -4 -10 -7 -10 -18 1 -10 9 -11 15 -3 18 7 2 10 13 7 23 -6 23
15 27 23 5z"/>
<path d="M590 2254 c0 -8 5 -12 10 -9 6 3 10 10 10 16 0 5 -4 9 -10 9 -5 0
-10 -7 -10 -16z"/>
<path d="M3836 2243 c9 -35 10 -37 29 -30 8 4 15 18 15 32 0 20 -5 25 -25 25
-23 0 -25 -3 -19 -27z"/>
<path d="M3404 2204 c15 -100 17 -152 6 -253 -12 -114 -30 -171 -54 -171 -9 0
-16 -6 -16 -12 -4 -107 -16 -152 -59 -207 -19 -25 -51 -30 -108 -16 -37 8 -46
-8 -16 -30 16 -12 15 -16 -10 -49 -38 -50 -97 -46 -97 5 0 10 -5 21 -10 24
-15 9 -42 -15 -36 -32 7 -17 -40 -18 -48 0 -3 6 -2 -7 1 -30 6 -46 -4 -55 -25
-22 -12 19 -19 20 -80 14 -37 -4 -71 -10 -75 -12 -14 -8 23 -40 54 -47 41 -8
39 -53 -3 -69 -10 -3 -18 -14 -17 -24 0 -10 3 -13 5 -7 6 14 43 7 65 -12 13
-12 26 -11 84 5 37 11 73 17 79 15 14 -6 56 -67 56 -82 0 -7 3 -12 8 -12 4 -1
20 -11 35 -24 l28 -23 -41 -84 c-23 -46 -46 -92 -51 -101 -13 -25 -2 -23 126
12 370 104 698 290 967 548 l98 94 -47 39 c-26 21 -51 39 -55 39 -10 0 -133
107 -211 183 -32 31 -62 57 -68 57 -5 0 -18 8 -29 18 -20 19 -57 38 -135 72
-27 11 -73 33 -102 47 -29 15 -55 24 -59 21 -3 -4 6 -28 20 -54 14 -26 24 -49
22 -51 -2 -2 -20 13 -39 34 -19 21 -52 56 -72 78 -42 46 -60 77 -70 122 -11
56 -29 53 -21 -3z"/>
<path d="M4623 2190 c1 -11 5 -20 9 -20 4 0 8 9 8 20 0 11 -4 20 -9 20 -6 0
-9 -9 -8 -20z"/>
<path d="M3858 2106 c-15 -11 -15 -13 4 -25 21 -13 98 -6 98 9 0 20 -79 33
-102 16z"/>
<path d="M3800 2080 c0 -5 7 -10 16 -10 8 0 12 5 9 10 -3 6 -10 10 -16 10 -5
0 -9 -4 -9 -10z"/>
<path d="M4117 2064 c-7 -8 2 -55 12 -67 11 -11 71 13 71 28 0 7 3 21 7 30 5
14 3 16 -13 7 -11 -5 -28 -6 -39 -1 -26 10 -30 10 -38 3z"/>
<path d="M3840 2050 c0 -5 5 -10 10 -10 6 0 10 5 10 10 0 6 -4 10 -10 10 -5 0
-10 -4 -10 -10z"/>
<path d="M3877 2034 c-4 -4 -4 -11 -1 -15 8 -14 31 -10 38 6 5 15 -24 22 -37
9z"/>
<path d="M4550 1999 c0 -5 5 -7 10 -4 6 3 10 8 10 11 0 2 -4 4 -10 4 -5 0 -10
-5 -10 -11z"/>
<path d="M4504 1986 c-7 -17 13 -49 26 -41 12 7 6 48 -7 53 -7 2 -16 -4 -19
-12z"/>
<path d="M4250 1980 c-17 -11 -6 -36 23 -54 21 -13 33 -1 18 18 -6 8 -10 19
-9 26 4 17 -13 22 -32 10z"/>
<path d="M3980 1960 c0 -5 5 -10 10 -10 6 0 10 5 10 10 0 6 -4 10 -10 10 -5 0
-10 -4 -10 -10z"/>
<path d="M1880 1898 c0 -22 33 -55 38 -38 3 7 -5 22 -17 33 -18 18 -21 19 -21
5z"/>
<path d="M4155 1780 c3 -5 11 -10 16 -10 6 0 7 5 4 10 -3 6 -11 10 -16 10 -6
0 -7 -4 -4 -10z"/>
<path d="M4205 1760 c-3 -5 1 -10 10 -10 9 0 13 5 10 10 -3 6 -8 10 -10 10 -2
0 -7 -4 -10 -10z"/>
<path d="M4270 1702 c0 -10 9 -25 19 -34 18 -15 20 -15 36 2 15 17 15 19 -7
34 -30 21 -48 20 -48 -2z"/>
<path d="M2700 1401 c0 -5 7 -14 15 -21 8 -7 15 -25 15 -40 0 -15 6 -33 14
-40 8 -6 16 -21 18 -32 4 -28 28 -36 28 -9 0 11 -4 23 -10 26 -5 3 -10 17 -10
30 0 13 -10 34 -22 45 -23 21 -23 22 -4 36 19 13 18 14 -12 14 -18 0 -32 -4
-32 -9z"/>
<path d="M2319 1283 c-35 -59 -71 -123 -80 -143 -22 -49 -123 -156 -154 -164
-14 -4 -25 -10 -25 -15 0 -7 194 -51 226 -51 6 0 14 14 18 30 4 21 11 30 25
30 11 0 23 -4 26 -10 11 -18 32 -10 45 18 11 23 14 24 18 9 3 -16 10 -18 38
-12 44 8 44 -8 -1 -37 -19 -13 -35 -27 -35 -33 0 -6 31 -11 70 -12 38 -1 78
-4 88 -8 16 -5 21 1 26 30 8 42 26 37 26 -6 l0 -30 103 6 c56 4 146 13 199 21
54 8 100 14 104 14 11 0 -81 66 -146 105 -97 58 -147 116 -209 241 -30 60 -58
112 -63 115 -11 7 -119 -18 -208 -47 -10 -3 -8 0 4 10 22 18 15 46 -12 46 -12
0 -38 -33 -83 -107z"/>
<path d="M2246 1354 c-9 -24 -7 -28 9 -14 17 14 20 30 6 30 -5 0 -12 -7 -15
-16z"/>
<path d="M2202 1269 c-12 -21 -18 -39 -13 -39 9 0 45 69 39 75 -2 2 -14 -14
-26 -36z"/>
<path d="M2120 1130 c0 -5 5 -10 10 -10 6 0 10 5 10 10 0 6 -4 10 -10 10 -5 0
-10 -4 -10 -10z"/>
<path d="M2945 1100 c3 -5 8 -10 11 -10 2 0 4 5 4 10 0 6 -5 10 -11 10 -5 0
-7 -4 -4 -10z"/>
<path d="M2990 1096 c0 -9 7 -16 16 -16 17 0 14 22 -4 28 -7 2 -12 -3 -12 -12z"/>
<path d="M3040 1069 c0 -3 10 -9 23 -13 30 -8 37 -7 37 3 0 5 -13 11 -30 13
-16 3 -30 1 -30 -3z"/>
<path d="M2347 924 c-14 -14 -6 -24 19 -24 16 0 24 5 22 13 -5 14 -31 21 -41
11z"/>
</g>
</svg>
